<?xml version="1.0" encoding="utf-8"?>
<!-- Generator: Adobe Illustrator 19.0.0, SVG Export Plug-In . SVG Version: 6.00 Build 0)  -->
<svg version="1.1" id="Layer_1" xmlns="http://www.w3.org/2000/svg" xmlns:xlink="http://www.w3.org/1999/xlink" x="0px" y="0px"
	 viewBox="-261.5 175.5 22.1 22.1" style="enable-background:new -261.5 175.5 22.1 22.1;" xml:space="preserve">
<style type="text/css">
	.st0{fill:#FFFFFF;}
	.st1{fill:none;}
</style>
<g id="XMLID_3_">
	<g id="XMLID_55_">
		<path id="XMLID_56_" class="st0" d="M-250.4,197.7c-6.1,0-11.1-5-11.1-11.1c0-6.1,5-11.1,11.1-11.1c6.1,0,11.1,5,11.1,11.1
			C-239.4,192.7-244.3,197.7-250.4,197.7z M-250.4,176.7c-5.5,0-9.9,4.5-9.9,9.9c0,5.5,4.5,9.9,9.9,9.9c5.5,0,9.9-4.5,9.9-9.9
			C-240.5,181.1-244.9,176.7-250.4,176.7z"/>
	</g>
	<polygon id="XMLID_54_" class="st1" points="-254.4,189.9 -254.8,192.3 -252.5,192.3 -252.1,189.9 	"/>
	<polygon id="XMLID_50_" class="st0" points="-253.2,183.3 -251,183.3 -250.9,183.3 -250.5,180.9 -252.9,180.9 -253.3,183.3 	"/>
	<polygon id="XMLID_49_" class="st1" points="-249.9,189.9 -250.3,192.3 -248,192.3 -247.6,189.9 	"/>
	<polygon id="XMLID_23_" class="st1" points="-250.9,183.2 -253.2,183.2 -255.4,183.2 -255.8,185.5 -253.6,185.5 -251.4,185.5 
		-249.1,185.5 -248.7,183.2 	"/>
	<polygon id="XMLID_17_" class="st1" points="-251.7,187.7 -252.1,189.9 -249.9,189.9 -249.5,187.7 	"/>
	<polygon id="XMLID_11_" class="st1" points="-254,187.7 -256.2,187.7 -256.6,189.9 -254.4,189.9 	"/>
	<g>
		<path class="st0" d="M-249.7,189.7l0.4-2.2h-2.5l-0.4,2.2h-2l0.4-2.2h-2.5l-0.4,2.4h2.2l-0.4,2.4h2.5l0.4-2.4h2l-0.4,2.4h2.5
			l0.4-2.7H-249.7z M-254.2,187.8l-0.3,1.9h0h-2l0.4-1.9H-254.2z M-252.3,190l-0.3,2.1h-2l0.3-2.1H-252.3L-252.3,190z M-249.7,187.8
			l-0.4,1.9h0h-2l0.3-1.9H-249.7z M-250.1,192.1l0.4-2.1h2l-0.3,2.1H-250.1z"/>
		<path class="st0" d="M-248.5,183.1h-7l-0.4,2.6h7L-248.5,183.1z M-255.7,185.4l0.3-2h6.5l-0.3,2H-255.7z"/>
	</g>
	<polygon id="XMLID_7_" class="st0" points="-254.4,189.9 -252.1,189.9 -252.1,189.9 -251.3,185.4 -253.6,185.4 -254.5,189.9 	"/>
	<polygon id="XMLID_6_" class="st0" points="-249.9,189.9 -247.6,189.9 -245.4,189.9 -245.4,189.9 -244.9,187.6 -247.2,187.6 
		-246.8,185.6 -244.6,185.6 -244.6,185.6 -244.2,183.2 -246.4,183.2 -246,180.9 -248.4,180.9 -248.8,183.2 -250,189.9 	"/>
</g>
</svg>
