<?xml version="1.0" encoding="utf-8"?>
<!-- Generator: Adobe Illustrator 19.0.0, SVG Export Plug-In . SVG Version: 6.00 Build 0)  -->
<svg version="1.1" id="Layer_1" xmlns="http://www.w3.org/2000/svg" xmlns:xlink="http://www.w3.org/1999/xlink" x="0px" y="0px"
	 viewBox="0 0 19 19" style="enable-background:new 0 0 19 19;" xml:space="preserve">
<style type="text/css">
	.st0{fill:#0D72B9;}
	.st1{fill:#FEFEFE;}
	.st2{fill:#0771B5;stroke:#0771B5;stroke-width:0.131;stroke-miterlimit:10;}
	.st3{fill:#0771B5;}
</style>
<g id="XMLID_3_">
	<g id="XMLID_55_">
		<path id="XMLID_56_" class="st0" d="M9.5,19C4.3,19,0,14.7,0,9.5S4.3,0,9.5,0C14.7,0,19,4.3,19,9.5S14.7,19,9.5,19z M9.5,1
			C4.8,1,1,4.8,1,9.5S4.8,18,9.5,18c4.7,0,8.5-3.8,8.5-8.5S14.2,1,9.5,1z"/>
	</g>
	<polygon id="XMLID_54_" class="st1" points="6.1,12.3 5.8,14.4 7.7,14.4 8,12.3 	"/>
	<path id="XMLID_51_" class="st2" d="M7.7,14.4h-2l0.4-2.2h2L7.7,14.4z M5.8,14.3L5.8,14.3h1.8l0.3-2H6.1L5.8,14.3z"/>
	<polygon id="XMLID_50_" class="st3" points="7.1,6.7 9,6.7 9.1,6.7 9.4,4.6 7.4,4.6 7.1,6.7 	"/>
	<polygon id="XMLID_49_" class="st1" points="9.9,12.3 9.6,14.4 11.5,14.4 11.9,12.3 	"/>
	<path id="XMLID_24_" class="st2" d="M11.6,14.4h-2l0.4-2.2h2L11.6,14.4z M9.7,14.3L9.7,14.3h1.8l0.3-2H10L9.7,14.3z"/>
	<polygon id="XMLID_23_" class="st1" points="9,6.6 7.1,6.6 5.2,6.6 4.9,8.6 6.8,8.6 8.7,8.6 10.6,8.6 11,6.6 	"/>
	<path id="XMLID_20_" class="st2" d="M10.7,8.6H4.8l0.4-2.1H11L10.7,8.6z M4.9,8.5L4.9,8.5h5.7l0.3-1.9H5.2L4.9,8.5z"/>
	<polygon id="XMLID_17_" class="st1" points="8.4,10.5 8,12.3 9.9,12.3 10.3,10.5 	"/>
	<path id="XMLID_12_" class="st2" d="M10,12.3H8l0.4-2h2L10,12.3z M8.1,12.2L8.1,12.2h1.8l0.3-1.8H8.4L8.1,12.2z"/>
	<polygon id="XMLID_11_" class="st1" points="6.4,10.5 4.5,10.5 4.2,12.3 6.1,12.3 	"/>
	<path id="XMLID_8_" class="st2" d="M6.1,12.3h-2l0.3-2h2L6.1,12.3z M4.2,12.2L4.2,12.2h1.8l0.3-1.8H4.6L4.2,12.2z"/>
	<polygon id="XMLID_7_" class="st3" points="6.1,12.3 8,12.3 8.1,12.3 8.8,8.5 6.7,8.5 6,12.3 	"/>
	<polygon id="XMLID_6_" class="st3" points="9.9,12.3 11.9,12.3 13.8,12.3 13.8,12.3 14.2,10.4 12.3,10.4 12.6,8.6 14.5,8.6 
		14.5,8.6 14.9,6.6 13,6.6 13.3,4.6 11.3,4.6 10.9,6.6 9.9,12.3 	"/>
</g>
</svg>
